<?xml version="1.0" encoding="UTF-8"?>
<svg id="_Шар_2" data-name="Шар 2" xmlns="http://www.w3.org/2000/svg" viewBox="0 0 360.09 99.98">
  <defs>
    <style>
      .cls-1 {
        fill: #fff;
      }

      .cls-2 {
        fill: red;
      }
    </style>
  </defs>
  <g id="_Шар_1-2" data-name="Шар 1">
    <polygon class="cls-2" points="102.18 26.72 93.9 26.72 79.74 0 88.02 0 102.18 26.72"/>
    <g>
      <g>
        <path class="cls-1" d="M20.88,64.26c-3.9,0-7.42-.89-10.57-2.65-3.15-1.77-5.66-4.35-7.52-7.74-1.86-3.39-2.79-7.54-2.79-12.47v-1.44c0-4.86.93-9,2.79-12.42,1.86-3.42,4.36-6.01,7.52-7.79,3.15-1.77,6.61-2.65,10.4-2.65,3.06,0,5.83.67,8.32,2.02,2.49,1.35,4.46,3.44,5.9,6.25h1.08v-7.02h7.02v35.46c0,1.8.81,2.7,2.43,2.7h2.25v6.48h-4.77c-1.86,0-3.48-.6-4.86-1.8-1.38-1.2-2.07-3.12-2.07-5.76h-1.08c-1.44,2.94-3.44,5.15-5.98,6.62-2.55,1.47-5.24,2.2-8.06,2.2ZM21.6,57.6c4.2,0,7.65-1.5,10.35-4.5,2.7-3,4.05-6.96,4.05-11.88v-1.08c0-3.18-.63-6-1.89-8.46-1.26-2.46-2.97-4.39-5.13-5.81-2.16-1.41-4.62-2.12-7.38-2.12s-5.22.68-7.38,2.03c-2.16,1.35-3.87,3.24-5.13,5.67-1.26,2.43-1.89,5.27-1.89,8.5v1.44c0,5.04,1.35,9,4.05,11.88,2.7,2.88,6.15,4.32,10.35,4.32Z"/>
        <path class="cls-1" d="M55.17,63l15.75-31.05v-1.08L55.17,0h8.28l14.13,27.9h1.62L93.33,0h8.28l-15.75,30.87v1.08l15.75,31.05h-8.28l-14.13-28.08h-1.62l-14.13,28.08h-8.28Z"/>
        <path class="cls-1" d="M133.65,64.26c-4.26,0-8.03-.98-11.3-2.92-3.27-1.95-5.84-4.65-7.69-8.1-1.86-3.45-2.79-7.45-2.79-12.01v-2.16c0-4.2.96-7.95,2.88-11.25,1.92-3.3,4.55-5.91,7.88-7.83,3.33-1.92,7.06-2.88,11.21-2.88,3.66,0,6.82.66,9.5,1.98,2.67,1.32,4.86,3,6.57,5.04,1.71,2.04,2.97,4.22,3.78,6.52.81,2.31,1.21,4.46,1.21,6.44v5.76h-36c.18,4.38,1.58,7.94,4.19,10.67,2.61,2.73,6.19,4.1,10.75,4.1,4.26,0,7.44-.9,9.54-2.7,2.1-1.8,3.54-3.96,4.32-6.48l6.66,1.8c-1.26,4.14-3.59,7.51-6.98,10.12-3.39,2.61-7.96,3.91-13.72,3.91ZM119.07,36.36h28.8c-.12-2.58-.85-4.81-2.21-6.71-1.35-1.89-3.08-3.34-5.17-4.36-2.1-1.02-4.32-1.53-6.66-1.53-3.96,0-7.29,1.2-9.99,3.6-2.7,2.4-4.29,5.4-4.77,9Z"/>
        <path class="cls-1" d="M168.84,63V18.36h7.02v7.56h1.08c2.76-5.88,7.56-8.82,14.4-8.82,5.16,0,9.27,1.61,12.33,4.81,3.06,3.21,4.59,8.03,4.59,14.44v26.64h-7.02v-25.2c0-4.68-1.05-8.19-3.15-10.53-2.1-2.34-4.95-3.51-8.55-3.51-4.2,0-7.53,1.46-9.99,4.37-2.46,2.91-3.69,6.79-3.69,11.65v23.22h-7.02Z"/>
        <path class="cls-1" d="M243.36,63c-2.04,0-3.71-.66-5-1.98-1.29-1.32-1.94-3-1.94-5.04v-31.14h-14.04v-6.48h14.04V0h7.02v18.36h17.28v6.48h-17.28v28.98c0,1.8.81,2.7,2.43,2.7h12.69v6.48h-15.21Z"/>
        <path class="cls-1" d="M298.71,64.26c-3.96,0-7.64-.9-11.02-2.7-3.39-1.8-6.14-4.41-8.24-7.83-2.1-3.42-3.15-7.59-3.15-12.51v-1.08c0-4.86,1.05-9.01,3.15-12.47,2.1-3.45,4.84-6.07,8.24-7.88,3.39-1.8,7.06-2.7,11.02-2.7s7.63.9,11.02,2.7c3.39,1.8,6.13,4.43,8.23,7.88,2.1,3.45,3.15,7.6,3.15,12.47v1.08c0,4.92-1.05,9.09-3.15,12.51-2.1,3.42-4.85,6.03-8.23,7.83-3.39,1.8-7.06,2.7-11.02,2.7ZM298.71,57.6c2.88,0,5.46-.66,7.74-1.98,2.28-1.32,4.1-3.21,5.45-5.67,1.35-2.46,2.02-5.37,2.02-8.73v-1.08c0-3.24-.67-6.09-2.02-8.55-1.35-2.46-3.18-4.38-5.49-5.76-2.31-1.38-4.88-2.07-7.69-2.07s-5.39.69-7.69,2.07c-2.31,1.38-4.14,3.3-5.49,5.76-1.35,2.46-2.02,5.31-2.02,8.55v1.08c0,3.36.67,6.27,2.02,8.73,1.35,2.46,3.18,4.35,5.49,5.67,2.31,1.32,4.87,1.98,7.69,1.98Z"/>
        <path class="cls-1" d="M353.79,64.26c-1.68,0-3.15-.63-4.41-1.89-1.26-1.26-1.89-2.73-1.89-4.41s.63-3.22,1.89-4.46c1.26-1.23,2.73-1.84,4.41-1.84s3.22.62,4.46,1.84c1.23,1.23,1.84,2.72,1.84,4.46s-.62,3.15-1.84,4.41c-1.23,1.26-2.72,1.89-4.46,1.89Z"/>
      </g>
      <g>
        <path class="cls-1" d="M143.42,99.98c-2.05,0-3.73-.35-5.04-1.06-1.31-.71-2.28-1.61-2.92-2.72-.64-1.11-1-2.25-1.08-3.42l2.96-.72c.13,1.52.73,2.74,1.78,3.66,1.05.92,2.43,1.38,4.14,1.38,1.47,0,2.65-.29,3.54-.86.89-.57,1.34-1.38,1.34-2.42,0-1.12-.44-1.92-1.32-2.4s-2.31-.79-4.28-.92c-2.27-.16-4.02-.7-5.26-1.62-1.24-.92-1.86-2.23-1.86-3.94v-.24c0-1.25.35-2.3,1.04-3.14.69-.84,1.59-1.47,2.68-1.9,1.09-.43,2.25-.64,3.48-.64,1.76,0,3.22.3,4.38.9,1.16.6,2.05,1.37,2.66,2.32.61.95.99,1.93,1.12,2.94l-2.96.72c-.11-1.28-.61-2.28-1.52-3-.91-.72-2.08-1.08-3.52-1.08-1.12,0-2.12.24-3,.72s-1.32,1.2-1.32,2.16.41,1.69,1.22,2.2c.81.51,2.3.84,4.46,1,2.29.19,4.05.74,5.28,1.66,1.23.92,1.84,2.26,1.84,4.02v.24c0,1.92-.73,3.43-2.18,4.52-1.45,1.09-3.34,1.64-5.66,1.64Z"/>
        <path class="cls-1" d="M167.58,99.98c-1.76,0-3.39-.4-4.9-1.2-1.51-.8-2.73-1.96-3.66-3.48-.93-1.52-1.4-3.37-1.4-5.56v-.48c0-2.16.47-4.01,1.4-5.54.93-1.53,2.15-2.7,3.66-3.5,1.51-.8,3.14-1.2,4.9-1.2s3.39.4,4.9,1.2c1.51.8,2.73,1.97,3.66,3.5.93,1.53,1.4,3.38,1.4,5.54v.48c0,2.19-.47,4.04-1.4,5.56-.93,1.52-2.15,2.68-3.66,3.48-1.51.8-3.14,1.2-4.9,1.2ZM167.58,97.02c1.28,0,2.43-.29,3.44-.88,1.01-.59,1.82-1.43,2.42-2.52.6-1.09.9-2.39.9-3.88v-.48c0-1.44-.3-2.71-.9-3.8-.6-1.09-1.41-1.95-2.44-2.56-1.03-.61-2.17-.92-3.42-.92s-2.39.31-3.42.92c-1.03.61-1.84,1.47-2.44,2.56-.6,1.09-.9,2.36-.9,3.8v.48c0,1.49.3,2.79.9,3.88.6,1.09,1.41,1.93,2.44,2.52,1.03.59,2.17.88,3.42.88Z"/>
        <path class="cls-1" d="M183.3,99.42v-2.88h7.2v-22.24h-6.96v-2.88h10.08v25.12h7.2v2.88h-17.52Z"/>
        <path class="cls-1" d="M214.98,99.98c-2.19,0-3.97-.72-5.36-2.16-1.39-1.44-2.08-3.57-2.08-6.4v-11.84h3.12v11.44c0,2.08.43,3.6,1.28,4.56.85.96,2.16,1.44,3.92,1.44,1.89,0,3.38-.65,4.46-1.94s1.62-3.02,1.62-5.18v-10.32h3.12v19.84h-3.12v-3.6h-.48c-.64,1.28-1.48,2.29-2.52,3.04s-2.36,1.12-3.96,1.12Z"/>
        <path class="cls-1" d="M240.9,99.42c-.91,0-1.65-.29-2.22-.88-.57-.59-.86-1.33-.86-2.24v-13.84h-6.24v-2.88h6.24v-8.16h3.12v8.16h7.68v2.88h-7.68v12.88c0,.8.36,1.2,1.08,1.2h5.64v2.88h-6.76Z"/>
        <path class="cls-1" d="M257.22,99.42v-2.88h6.96v-14.08h-6.24v-2.88h9.36v16.96h6.48v2.88h-16.56ZM265.7,76.46c-.75,0-1.4-.28-1.96-.84-.56-.56-.84-1.21-.84-1.96s.28-1.43.84-1.98c.56-.55,1.21-.82,1.96-.82s1.43.27,1.98.82c.55.55.82,1.21.82,1.98s-.27,1.4-.82,1.96c-.55.56-1.21.84-1.98.84Z"/>
        <path class="cls-1" d="M289.98,99.98c-1.76,0-3.39-.4-4.9-1.2-1.51-.8-2.73-1.96-3.66-3.48-.93-1.52-1.4-3.37-1.4-5.56v-.48c0-2.16.47-4.01,1.4-5.54.93-1.53,2.15-2.7,3.66-3.5,1.51-.8,3.14-1.2,4.9-1.2s3.39.4,4.9,1.2c1.51.8,2.73,1.97,3.66,3.5.93,1.53,1.4,3.38,1.4,5.54v.48c0,2.19-.47,4.04-1.4,5.56-.93,1.52-2.15,2.68-3.66,3.48-1.51.8-3.14,1.2-4.9,1.2ZM289.98,97.02c1.28,0,2.43-.29,3.44-.88,1.01-.59,1.82-1.43,2.42-2.52.6-1.09.9-2.39.9-3.88v-.48c0-1.44-.3-2.71-.9-3.8-.6-1.09-1.41-1.95-2.44-2.56-1.03-.61-2.17-.92-3.42-.92s-2.39.31-3.42.92c-1.03.61-1.84,1.47-2.44,2.56-.6,1.09-.9,2.36-.9,3.8v.48c0,1.49.3,2.79.9,3.88.6,1.09,1.41,1.93,2.44,2.52,1.03.59,2.17.88,3.42.88Z"/>
        <path class="cls-1" d="M305.7,99.42v-19.84h3.12v3.36h.48c1.23-2.61,3.36-3.92,6.4-3.92,2.29,0,4.12.71,5.48,2.14,1.36,1.43,2.04,3.57,2.04,6.42v11.84h-3.12v-11.2c0-2.08-.47-3.64-1.4-4.68-.93-1.04-2.2-1.56-3.8-1.56-1.87,0-3.35.65-4.44,1.94-1.09,1.29-1.64,3.02-1.64,5.18v10.32h-3.12Z"/>
        <path class="cls-1" d="M339.26,99.98c-2.05,0-3.73-.35-5.04-1.06-1.31-.71-2.28-1.61-2.92-2.72-.64-1.11-1-2.25-1.08-3.42l2.96-.72c.13,1.52.73,2.74,1.78,3.66,1.05.92,2.43,1.38,4.14,1.38,1.47,0,2.65-.29,3.54-.86.89-.57,1.34-1.38,1.34-2.42,0-1.12-.44-1.92-1.32-2.4s-2.31-.79-4.28-.92c-2.27-.16-4.02-.7-5.26-1.62-1.24-.92-1.86-2.23-1.86-3.94v-.24c0-1.25.35-2.3,1.04-3.14.69-.84,1.59-1.47,2.68-1.9,1.09-.43,2.25-.64,3.48-.64,1.76,0,3.22.3,4.38.9,1.16.6,2.05,1.37,2.66,2.32.61.95.99,1.93,1.12,2.94l-2.96.72c-.11-1.28-.61-2.28-1.52-3-.91-.72-2.08-1.08-3.52-1.08-1.12,0-2.12.24-3,.72s-1.32,1.2-1.32,2.16.41,1.69,1.22,2.2c.81.51,2.3.84,4.46,1,2.29.19,4.05.74,5.28,1.66,1.23.92,1.84,2.26,1.84,4.02v.24c0,1.92-.73,3.43-2.18,4.52-1.45,1.09-3.34,1.64-5.66,1.64Z"/>
      </g>
    </g>
  </g>
</svg>